<?xml version="1.0" encoding="UTF-8"?>
<svg version="1.1" xmlns="http://www.w3.org/2000/svg" width="1024" height="1024">
<path d="M0 0 C337.92 0 675.84 0 1024 0 C1024 337.92 1024 675.84 1024 1024 C686.08 1024 348.16 1024 0 1024 C0 686.08 0 348.16 0 0 Z " fill="#F8F2DE" transform="translate(0,0)"/>
<path d="M0 0 C3.03186351 0.00315137 6.06273916 -0.02036317 9.09448242 -0.0456543 C27.49102689 -0.10745565 45.00432649 2.17594346 62.8034668 6.81567383 C63.99391602 7.11086914 65.18436523 7.40606445 66.41088867 7.71020508 C77.17675105 10.45148468 77.17675105 10.45148468 81.8659668 13.31567383 C82.88405004 16.13579488 83.0007303 18.8159005 83.02709961 21.79516602 C83.03656113 22.67924133 83.04602264 23.56331665 83.05577087 24.47418213 C83.06236473 25.90392365 83.06236473 25.90392365 83.0690918 27.36254883 C83.07610611 28.3577655 83.08312042 29.35298218 83.09034729 30.37835693 C83.10791511 33.60750809 83.11420752 36.83647651 83.1159668 40.06567383 C83.11664154 41.16145752 83.11731628 42.25724121 83.11801147 43.38623047 C83.10274143 58.92114821 82.80183939 74.01733578 79.8659668 89.31567383 C79.68904297 90.29213867 79.51211914 91.26860352 79.32983398 92.2746582 C77.32336709 103.23225463 74.83906465 114.00701752 71.6784668 124.69067383 C71.42863037 125.53533203 71.17879395 126.37999023 70.92138672 127.25024414 C69.12576046 133.05588016 69.12576046 133.05588016 66.8659668 135.31567383 C65.00024414 135.57104492 65.00024414 135.57104492 62.7019043 135.58911133 C61.83992432 135.6066748 60.97794434 135.62423828 60.08984375 135.64233398 C59.14971436 135.65828613 58.20958496 135.67423828 57.2409668 135.69067383 C30.09611053 136.59483427 3.0051628 143.1784629 -22.1340332 153.31567383 C-23.45084246 153.79699941 -24.76993176 154.27212647 -26.09106445 154.74145508 C-35.10170275 157.95424677 -43.59304997 161.79279242 -52.06469727 166.23168945 C-54.21550474 167.35835122 -56.37365315 168.4700729 -58.5324707 169.58129883 C-66.66351408 173.79473917 -74.50579398 178.23402202 -82.1340332 183.31567383 C-83.04926758 183.89446289 -83.96450195 184.47325195 -84.9074707 185.06958008 C-96.89009587 192.76351769 -107.86625031 201.94433988 -118.21606445 211.70629883 C-120.1340332 213.31567383 -120.1340332 213.31567383 -123.1340332 214.31567383 C-123.1340332 214.97567383 -123.1340332 215.63567383 -123.1340332 216.31567383 C-124.77856445 217.97192383 -124.77856445 217.97192383 -126.9465332 219.81567383 C-127.65422852 220.42411133 -128.36192383 221.03254883 -129.09106445 221.65942383 C-131.1340332 223.31567383 -131.1340332 223.31567383 -134.1340332 225.31567383 C-144.7661475 212.87629236 -144.7661475 212.87629236 -148.5715332 207.87817383 C-155.50709134 198.84697942 -162.9737115 190.25350924 -171.1340332 182.31176758 C-173.00703692 180.44242207 -174.7325935 178.51787699 -176.4465332 176.50317383 C-183.0542958 168.81972895 -190.37506623 161.63772292 -198.0949707 155.07739258 C-200.56174818 152.94613464 -202.93367638 150.72243557 -205.3215332 148.50317383 C-211.29549604 143.04102522 -217.65358892 138.15797719 -224.1340332 133.31567383 C-223.51343061 129.96912137 -222.30037328 127.84931203 -220.2902832 125.12036133 C-219.70770752 124.32670166 -219.12513184 123.53304199 -218.52490234 122.71533203 C-217.90091553 121.88219482 -217.27692871 121.04905762 -216.6340332 120.19067383 C-215.99908936 119.33626709 -215.36414551 118.48186035 -214.70996094 117.6015625 C-210.78917449 112.37699886 -206.78433159 107.36475733 -202.29418945 102.61645508 C-200.4259414 100.62658509 -198.62752967 98.601652 -196.8371582 96.54223633 C-187.84746366 86.22978786 -178.55937581 76.19350464 -168.1340332 67.31567383 C-167.1646582 66.45844727 -166.1952832 65.6012207 -165.1965332 64.71801758 C-139.24088769 41.95685092 -105.94985288 21.93298374 -72.7121582 12.38598633 C-69.07958765 11.35165998 -69.07958765 11.35165998 -65.4309082 9.87426758 C-60.12598363 7.84749466 -54.64927677 6.57291693 -49.1340332 5.25317383 C-48.11180664 4.99729492 -47.08958008 4.74141602 -46.03637695 4.4777832 C-30.67467491 0.77536555 -15.73268573 -0.03404524 0 0 Z " fill="#F4B660" transform="translate(683.134033203125,292.684326171875)"/>
<path d="M0 0 C0.89332031 0.71929687 1.78664063 1.43859375 2.70703125 2.1796875 C8.16974531 6.5956997 13.46497248 11.14762899 18.66015625 15.875 C20.79611116 17.81483218 22.9517711 19.72713149 25.125 21.625 C25.76566406 22.18574219 26.40632813 22.74648438 27.06640625 23.32421875 C28.37850454 24.4613706 29.6991668 25.58870114 31.02734375 26.70703125 C34.98006283 30.06798048 38.40761927 33.54318952 41.75390625 37.5 C44.87018868 40.96855783 48.18621201 44.22114048 51.5 47.5 C56.54840309 52.51001914 61.43012475 57.54595324 66 63 C66.93089756 64.08062959 67.863345 65.15992495 68.796875 66.23828125 C77.76056307 76.60523943 86.26299502 87.27335843 94.58886719 98.15917969 C96.07809682 100.10187716 97.57383178 102.03944616 99.0703125 103.9765625 C109.4536475 117.44346208 119.42774698 131.17505166 129.0625 145.1875 C129.59875 145.96528809 130.135 146.74307617 130.6875 147.54443359 C133.67931702 151.926532 136.43446438 156.35496549 139 161 C134.91494828 159.5992013 132.13725733 157.67139777 128.8125 154.9375 C82.70433424 118.33460352 28.16566794 94.4411314 -29 82 C-30.25731934 81.7213208 -30.25731934 81.7213208 -31.54003906 81.43701172 C-51.39766682 77.08668865 -71.70513348 76.62673945 -91.95678711 76.62939453 C-95.66632175 76.62502495 -99.37465858 76.58854893 -103.08398438 76.55078125 C-118.80824776 76.47979487 -133.8301505 77.8392763 -149.30549622 80.63876343 C-156.73999951 81.63546438 -156.73999951 81.63546438 -160.08300781 79.94946289 C-160.70014648 79.4621167 -161.31728516 78.97477051 -161.953125 78.47265625 C-162.64937988 77.9327002 -163.34563477 77.39274414 -164.06298828 76.83642578 C-165.14555908 75.95833252 -165.14555908 75.95833252 -166.25 75.0625 C-167.00651855 74.46421387 -167.76303711 73.86592773 -168.54248047 73.24951172 C-174.23339377 68.71264 -179.76171682 64.05656295 -185 59 C-185.56960449 58.45085937 -186.13920898 57.90171875 -186.72607422 57.3359375 C-194.68133215 49.62870487 -202.29202296 41.83959631 -209 33 C-209.4326416 32.43313477 -209.8652832 31.86626953 -210.31103516 31.28222656 C-226.99067171 9.33441519 -239.2627469 -14.88460748 -248 -41 C-248.309375 -41.89332031 -248.61875 -42.78664063 -248.9375 -43.70703125 C-250.92178842 -49.76483485 -251.64964704 -55.6453222 -252 -62 C-165.20549115 -90.40285422 -68.05390814 -55.88968301 0 0 Z " fill="#FB9320" transform="translate(445,432)"/>
<path d="M0 0 C0.92312988 0.36706055 1.84625977 0.73412109 2.79736328 1.11230469 C39.40888219 15.72340604 72.30685798 35.10704521 105 57 C103.36162431 60.49956684 101.62809438 62.45886443 98.6875 65 C97.78902344 65.79148437 96.89054687 66.58296875 95.96484375 67.3984375 C94.98644531 68.25695312 94.00804687 69.11546875 93 70 C91.47588936 71.35269117 89.95815945 72.711335 88.45017552 74.08198851 C87.36060719 75.07083727 86.2656501 76.05379992 85.16396594 77.02913219 C82.14021606 79.77334661 79.55528508 82.48074358 77.21809769 85.8361311 C72.64582365 92.12982294 68.27985326 96.97670555 60.36104584 98.39869118 C53.33851764 99.13714421 46.31965397 99.01874378 39.26855469 98.92504883 C36.56640137 98.94376229 33.86486399 98.96831454 31.16288757 98.99983215 C24.61130234 99.06237826 18.06234429 99.04471754 11.51072326 98.99761752 C6.17967355 98.96085462 0.84934743 98.95410404 -4.48180389 98.96829796 C-5.62432568 98.97131262 -5.62432568 98.97131262 -6.78992872 98.97438818 C-8.33781328 98.97861224 -9.88569764 98.98290975 -11.4335818 98.98727985 C-25.91847846 99.02480094 -40.40193319 98.97146773 -54.88655588 98.88605847 C-67.27965913 98.81501876 -79.67082949 98.81953638 -92.06396484 98.88012695 C-106.49419497 98.95062994 -120.92330301 98.97535558 -135.35366321 98.92729396 C-136.89675299 98.92226473 -138.43984293 98.91728628 -139.98293304 98.91235924 C-140.74192894 98.90990439 -141.50092484 98.90744955 -142.28292061 98.90492031 C-147.59736558 98.89075958 -152.9111429 98.90842712 -158.22550201 98.93869972 C-164.71764214 98.97472833 -171.20738349 98.95956337 -177.69919214 98.88171724 C-181.00490228 98.84328258 -184.30352738 98.83360117 -187.60972786 98.87075043 C-203.35006587 99.03019519 -213.59510126 97.54019922 -225.36739731 86.5719862 C-225.97574527 85.97314912 -226.58409324 85.37431205 -227.21087599 84.75732839 C-229.46356777 82.54467058 -231.83089383 80.48482826 -234.21698213 78.41838294 C-239.25421083 73.9879263 -243.77926605 69.20070069 -248 64 C-248.68908447 63.163479 -248.68908447 63.163479 -249.39208984 62.31005859 C-250.99809921 60.3585734 -252.59423402 58.39940023 -254.1875 56.4375 C-254.69925781 55.81198242 -255.21101562 55.18646484 -255.73828125 54.54199219 C-264.21023192 43.99086515 -264.21023192 43.99086515 -263.78540039 39.96777344 C-262.86491032 37.66154093 -261.94602881 36.76246699 -260.0078125 35.23046875 C-259.39131836 34.73796631 -258.77482422 34.24546387 -258.13964844 33.73803711 C-257.47481445 33.22635986 -256.80998047 32.71468262 -256.125 32.1875 C-255.43954102 31.6519751 -254.75408203 31.1164502 -254.04785156 30.56469727 C-248.57026169 26.33475216 -242.96331746 22.51663639 -237 19 C-236.3301709 18.59426758 -235.6603418 18.18853516 -234.97021484 17.77050781 C-164.70614497 -24.78314078 -76.03059753 -30.84625669 0 0 Z " fill="#FA7928" transform="translate(458,551)"/>
<path d="M0 0 C2.6936703 0.01071914 5.38667197 0.00003252 8.08032227 -0.01269531 C19.43604482 -0.02045858 30.50828367 0.75165775 41.76196289 2.26074219 C41.88828992 10.79284771 41.88828992 10.79284771 40.87915039 14.63574219 C40.68490479 15.38452637 40.49065918 16.13331055 40.29052734 16.90478516 C40.07485107 17.68225098 39.8591748 18.4597168 39.63696289 19.26074219 C39.41032959 20.09105957 39.18369629 20.92137695 38.95019531 21.77685547 C33.13213949 42.54399978 24.14901985 62.58103362 11.76196289 80.26074219 C11.09422852 81.22109375 10.42649414 82.18144531 9.73852539 83.17089844 C2.03423992 93.99648534 -6.47053943 103.80952226 -15.92553711 113.13574219 C-16.83625977 114.04582031 -17.74698242 114.95589844 -18.68530273 115.89355469 C-21.18250446 118.37443483 -23.67460038 120.84830485 -26.23803711 123.26074219 C-27.08940813 124.12120746 -27.94077915 124.98167273 -28.8179493 125.8682127 C-32.76677215 129.11274972 -36.48393195 128.94666514 -41.42550659 128.86201477 C-42.34126532 128.86628689 -43.25702404 128.87055902 -44.20053303 128.8749606 C-47.26415301 128.88318594 -50.32639908 128.85571266 -53.38989258 128.82836914 C-55.58779366 128.82695858 -57.78569709 128.82775081 -59.9835968 128.83058167 C-65.94813365 128.83201687 -71.91216826 128.80260943 -77.87658834 128.76771188 C-84.11058096 128.73646625 -90.34458496 128.73351903 -96.5786438 128.72758484 C-107.0413669 128.71380747 -117.50391802 128.68257156 -127.96655273 128.63793945 C-138.74160849 128.59202249 -149.51661417 128.5566411 -160.29174805 128.53540039 C-161.28853356 128.53342996 -161.28853356 128.53342996 -162.30545615 128.53141973 C-165.63927992 128.5248944 -168.97310404 128.51858717 -172.3069284 128.51236022 C-199.95075961 128.46009023 -227.5943854 128.37213755 -255.23803711 128.26074219 C-253.3907295 124.24930782 -250.74342844 121.50168428 -247.61303711 118.44824219 C-247.07251709 117.91416748 -246.53199707 117.38009277 -245.97509766 116.82983398 C-242.47946984 113.40083913 -238.8838838 110.13120964 -235.15209961 106.95996094 C-232.97333555 105.02575202 -230.95842391 102.97250408 -228.92553711 100.88574219 C-224.89885746 96.81088005 -220.63126834 93.19987324 -216.15991211 89.62402344 C-213.66256977 87.60411419 -211.22570472 85.531563 -208.80151367 83.42504883 C-189.70248581 66.91172633 -168.37673281 52.19062921 -146.12329102 40.27099609 C-144.20091973 39.24085204 -142.28752579 38.19530941 -140.37475586 37.14746094 C-111.16147349 21.23993607 -79.86893533 11.17129854 -47.36303711 4.51074219 C-46.40220215 4.31198486 -45.44136719 4.11322754 -44.45141602 3.90844727 C-29.62191095 0.98884935 -15.08774711 -0.07112346 0 0 Z " fill="#FA7928" transform="translate(804.238037109375,519.7392578125)"/>
<path d="M0 0 C0.33 0.99 0.66 1.98 1 3 C-0.65 4.65 -2.3 6.3 -4 8 C68.27 8.33 140.54 8.66 215 9 C215 9.33 215 9.66 215 10 C141.41 10 67.82 10 -8 10 C-5.77502475 5.55004949 -3.55366005 3.39915309 0 0 Z " fill="#EA8947" transform="translate(557,638)"/>
<path d="M0 0 C2.6936703 0.01071914 5.38667197 0.00003252 8.08032227 -0.01269531 C19.43604482 -0.02045858 30.50828367 0.75165775 41.76196289 2.26074219 C41.80343557 8.08765381 41.36585109 12.6471335 39.76196289 18.26074219 C39.43196289 18.26074219 39.10196289 18.26074219 38.76196289 18.26074219 C38.76196289 13.64074219 38.76196289 9.02074219 38.76196289 4.26074219 C28.07294805 2.72332277 17.77703777 1.96557556 6.98583984 2.05493164 C4.66956803 2.0734816 2.35369284 2.07543829 0.03735352 2.07519531 C-1.46199886 2.08010296 -2.96134858 2.08592797 -4.46069336 2.09277344 C-5.13995377 2.09388626 -5.81921417 2.09499908 -6.51905823 2.09614563 C-10.83982031 2.13864911 -14.97056378 2.61502283 -19.23803711 3.26074219 C-20.63119697 3.33061807 -22.02676737 3.36992623 -23.42163086 3.35839844 C-24.47060547 3.35356445 -24.47060547 3.35356445 -25.54077148 3.34863281 C-26.24524414 3.34025391 -26.9497168 3.331875 -27.67553711 3.32324219 C-28.40708008 3.31873047 -29.13862305 3.31421875 -29.89233398 3.30957031 C-31.6742713 3.29792366 -33.45616573 3.2799941 -35.23803711 3.26074219 C-35.23803711 2.93074219 -35.23803711 2.60074219 -35.23803711 2.26074219 C-23.45653502 0.56733811 -11.89883032 -0.05609094 0 0 Z " fill="#ED9150" transform="translate(804.238037109375,519.7392578125)"/>
<path d="M0 0 C0.66 0.33 1.32 0.66 2 1 C-1.46570428 4.56317721 -4.96738971 8.02227675 -8.75 11.25 C-12.84148179 14.75583832 -16.59354687 18.55732273 -20.31933594 22.44433594 C-21.51008584 23.66585898 -22.75144543 24.83762512 -24 26 C-24.66 26 -25.32 26 -26 26 C-22.53409709 18.10544337 -14.41506518 12.50215206 -8 7 C-6.49872674 5.68895657 -4.99869166 4.37649374 -3.5 3.0625 C-2.33333333 2.04166667 -1.16666667 1.02083333 0 0 Z " fill="#EDBE74" transform="translate(522,354)"/>
<path d="M0 0 C0.33 0.99 0.66 1.98 1 3 C0.0479279 4.00596297 -0.91187346 5.00461563 -1.875 6 C-2.40867187 6.556875 -2.94234375 7.11375 -3.4921875 7.6875 C-5 9 -5 9 -7 9 C-5.44499019 5.18315774 -2.96404505 2.80804268 0 0 Z " fill="#F38747" transform="translate(557,638)"/>
<path d="M0 0 C2.52588702 2.36292656 3.88820837 3.66462511 5 7 C1.34683329 5.75023244 0.21934164 5.32901247 -2 2 C-1.34 2 -0.68 2 0 2 C0 1.34 0 0.68 0 0 Z " fill="#EEA44B" transform="translate(579,586)"/>
<path d="M0 0 C0 3 0 3 -1.53125 4.60546875 C-2.1809375 5.12753906 -2.830625 5.64960937 -3.5 6.1875 C-4.1496875 6.71730469 -4.799375 7.24710938 -5.46875 7.79296875 C-5.9740625 8.19128906 -6.479375 8.58960938 -7 9 C-6.19095897 4.20719998 -3.74015409 2.86479887 0 0 Z " fill="#EE823D" transform="translate(201,584)"/>
</svg>
